<?xml version="1.0" encoding="UTF-8"?>
<svg xmlns="http://www.w3.org/2000/svg" viewBox="0 0 512 512" width="512" height="512">
  <title>porrabros app icon</title>
  <desc>Icono cuadrado porrabros para apps</desc>
  <rect x="0" y="0" width="512" height="512" rx="112" fill="#FFD23F"/>
  <rect x="20" y="20" width="472" height="472" rx="92" fill="none" stroke="#1A1A1A" stroke-width="18"/>
  <g fill="#1A1A1A">
    <g transform="translate(142.92, 340.00) scale(0.117188, -0.117188)"><path d="M78 0V1760H543Q689 1760 774.5 1695.0Q860 1630 897.0 1510.0Q934 1390 934 1224Q934 1064 903.0 945.5Q872 827 792.5 762.0Q713 697 567 697H424V0ZM424 1013H444Q542 1013 564.0 1068.0Q586 1123 586 1230Q586 1330 564.5 1384.5Q543 1439 463 1439H424Z"/></g>
    <g transform="translate(254.24, 340.00) scale(0.117188, -0.117188)"><path d="M78 0V1760H555Q747 1760 834.5 1666.5Q922 1573 922 1358V1281Q922 1157 877.5 1080.0Q833 1003 742 979Q861 949 901.5 838.5Q942 728 942 569Q942 398 910.0 270.0Q878 142 794.0 71.0Q710 0 555 0ZM422 1097H494Q543 1097 557.0 1135.0Q571 1173 571 1226V1403Q571 1488 496 1488H422ZM457 310Q594 310 594 440V660Q594 735 571.5 778.5Q549 822 487 822H422V312Q444 310 457 310Z"/></g>
  </g>
  <circle cx="410" cy="110" r="40" fill="#EE4B2B" stroke="#1A1A1A" stroke-width="8"/>
  <g fill="#FFD23F">
    <g transform="translate(399.98, 126.00) scale(0.021484, -0.021484)"><path d="M55 1353V1651H413V1353ZM55 -108 125 1173H343L413 -108Z"/></g>
    <g transform="translate(409.95, 126.00) scale(0.021484, -0.021484)"><path d="M125 479 55 1760H413L343 479ZM55 1V299H413V1Z"/></g>
  </g>
</svg>