<?xml version="1.0" encoding="UTF-8"?>
<svg xmlns="http://www.w3.org/2000/svg" viewBox="0 0 800 400" width="800" height="400">
  <title>porrabros logo</title>
  <desc>Logo principal porrabros - pegatina</desc>
  <g transform="translate(400, 200) rotate(-6)">
    <rect x="-326" y="-146" width="652" height="292" rx="32" fill="#FFD23F"/>
    <rect x="-336" y="-156" width="652" height="292" rx="32" fill="#1A1A1A" stroke="#FFD23F" stroke-width="7"/>
    <rect x="-308" y="-128" width="596" height="7" fill="#FFD23F"/>
    <g fill="#FFD23F">
    <g transform="translate(-324.69, 28.00) scale(0.067383, -0.067383)"><path d="M78 0V1760H543Q689 1760 774.5 1695.0Q860 1630 897.0 1510.0Q934 1390 934 1224Q934 1064 903.0 945.5Q872 827 792.5 762.0Q713 697 567 697H424V0ZM424 1013H444Q542 1013 564.0 1068.0Q586 1123 586 1230Q586 1330 564.5 1384.5Q543 1439 463 1439H424Z"/></g>
    <g transform="translate(-257.53, 28.00) scale(0.067383, -0.067383)"><path d="M498 -16Q287 -16 175.5 111.5Q64 239 64 480V1316Q64 1542 174.5 1659.0Q285 1776 498 1776Q711 1776 821.5 1659.0Q932 1542 932 1316V480Q932 239 820.5 111.5Q709 -16 498 -16ZM501 308Q581 308 581 463V1322Q581 1452 503 1452Q415 1452 415 1319V461Q415 379 435.0 343.5Q455 308 501 308Z"/></g>
    <g transform="translate(-188.41, 28.00) scale(0.067383, -0.067383)"><path d="M78 0V1760H618Q753 1760 822.0 1698.5Q891 1637 914.5 1526.5Q938 1416 938 1267Q938 1123 901.5 1037.0Q865 951 764 918Q847 901 880.5 835.5Q914 770 914 666V0H567V689Q567 766 535.5 784.5Q504 803 434 803V0ZM436 1108H521Q594 1108 594 1267Q594 1370 578.0 1402.0Q562 1434 518 1434H436Z"/></g>
    <g transform="translate(-120.65, 28.00) scale(0.067383, -0.067383)"><path d="M78 0V1760H618Q753 1760 822.0 1698.5Q891 1637 914.5 1526.5Q938 1416 938 1267Q938 1123 901.5 1037.0Q865 951 764 918Q847 901 880.5 835.5Q914 770 914 666V0H567V689Q567 766 535.5 784.5Q504 803 434 803V0ZM436 1108H521Q594 1108 594 1267Q594 1370 578.0 1402.0Q562 1434 518 1434H436Z"/></g>
    <g transform="translate(-52.88, 28.00) scale(0.067383, -0.067383)"><path d="M30 0 200 1760H797L964 0H631L606 284H394L372 0ZM419 565H579L502 1460H486Z"/></g>
    <g transform="translate(16.10, 28.00) scale(0.067383, -0.067383)"><path d="M78 0V1760H555Q747 1760 834.5 1666.5Q922 1573 922 1358V1281Q922 1157 877.5 1080.0Q833 1003 742 979Q861 949 901.5 838.5Q942 728 942 569Q942 398 910.0 270.0Q878 142 794.0 71.0Q710 0 555 0ZM422 1097H494Q543 1097 557.0 1135.0Q571 1173 571 1226V1403Q571 1488 496 1488H422ZM457 310Q594 310 594 440V660Q594 735 571.5 778.5Q549 822 487 822H422V312Q444 310 457 310Z"/></g>
    <g transform="translate(84.13, 28.00) scale(0.067383, -0.067383)"><path d="M78 0V1760H618Q753 1760 822.0 1698.5Q891 1637 914.5 1526.5Q938 1416 938 1267Q938 1123 901.5 1037.0Q865 951 764 918Q847 901 880.5 835.5Q914 770 914 666V0H567V689Q567 766 535.5 784.5Q504 803 434 803V0ZM436 1108H521Q594 1108 594 1267Q594 1370 578.0 1402.0Q562 1434 518 1434H436Z"/></g>
    <g transform="translate(151.90, 28.00) scale(0.067383, -0.067383)"><path d="M498 -16Q287 -16 175.5 111.5Q64 239 64 480V1316Q64 1542 174.5 1659.0Q285 1776 498 1776Q711 1776 821.5 1659.0Q932 1542 932 1316V480Q932 239 820.5 111.5Q709 -16 498 -16ZM501 308Q581 308 581 463V1322Q581 1452 503 1452Q415 1452 415 1319V461Q415 379 435.0 343.5Q455 308 501 308Z"/></g>
    <g transform="translate(221.01, 28.00) scale(0.067383, -0.067383)"><path d="M496 -16Q255 -16 148.5 104.0Q42 224 42 486V658H390V438Q390 377 408.5 342.5Q427 308 473 308Q521 308 539.5 336.0Q558 364 558 428Q558 509 542.0 563.5Q526 618 486.5 667.5Q447 717 377 783L219 933Q42 1100 42 1315Q42 1540 146.5 1658.0Q251 1776 449 1776Q691 1776 792.5 1647.0Q894 1518 894 1255H536V1376Q536 1412 515.5 1432.0Q495 1452 460 1452Q418 1452 398.5 1428.5Q379 1405 379 1368Q379 1331 399.0 1288.0Q419 1245 478 1189L681 994Q742 936 793.0 871.5Q844 807 875.0 721.5Q906 636 906 513Q906 265 814.5 124.5Q723 -16 496 -16Z"/></g>
    </g>
    <g fill="#FFD23F">
    <g transform="translate(-243.73, 78.00) scale(0.010742, -0.010742)"><path d="M430 534H647Q766 534 862.0 568.0Q958 602 1026 663Q1093 723 1129.5 806.0Q1166 889 1166 987Q1166 1092 1129.5 1178.0Q1093 1264 1026 1326Q958 1387 862.0 1421.5Q766 1456 647 1456H149V0H430ZM430 762V1228H647Q707 1228 751.0 1209.0Q795 1190 825 1157Q854 1124 868.5 1080.0Q883 1036 883 985Q883 941 868.5 900.5Q854 860 825 829Q795 798 751.0 780.0Q707 762 647 762Z"/></g>
    <g transform="translate(-227.03, 78.00) scale(0.010742, -0.010742)"><path d="M625 544 899 0H1200V13L887 614Q947 641 995.5 678.0Q1044 715 1079 765Q1113 814 1131.5 876.5Q1150 939 1150 1017Q1150 1125 1112.5 1207.0Q1075 1289 1006 1344Q936 1399 838.0 1427.5Q740 1456 619 1456H131V0H412V544ZM412 772V1228H619Q677 1228 722.0 1214.0Q767 1200 798 1174Q833 1145 850.5 1100.5Q868 1056 868 998Q868 950 854.5 911.0Q841 872 815 844Q784 809 734.5 790.5Q685 772 620 772Z"/></g>
    <g transform="translate(-210.32, 78.00) scale(0.010742, -0.010742)"><path d="M1147 621V833Q1147 932 1128.5 1020.0Q1110 1108 1075 1182Q1043 1247 998.5 1301.0Q954 1355 895 1393Q836 1433 762.5 1454.5Q689 1476 605 1476Q522 1476 451.0 1455.0Q380 1434 323 1395Q265 1355 220.5 1299.0Q176 1243 145 1174Q113 1101 96.5 1015.0Q80 929 80 833V621Q80 531 94.5 450.0Q109 369 137 300Q168 225 214.0 165.5Q260 106 318 64Q377 24 449.0 2.0Q521 -20 606 -20Q686 -20 755.5 -0.5Q825 19 883 54Q947 94 997.0 154.0Q1047 214 1081 286Q1113 358 1130.0 442.5Q1147 527 1147 621ZM862 835V621Q862 567 856.5 517.0Q851 467 840 425Q826 371 802.5 328.5Q779 286 745 258Q718 235 683.0 223.0Q648 211 606 211Q562 211 527.5 224.0Q493 237 466 261Q437 288 415.5 331.5Q394 375 383 428Q373 470 369.0 519.0Q365 568 365 621V835Q365 891 369.5 942.0Q374 993 384 1036Q397 1092 420.5 1134.0Q444 1176 478 1204Q503 1223 534.5 1233.0Q566 1243 605 1243Q646 1243 679.5 1232.0Q713 1221 740 1201Q774 1174 799.0 1131.5Q824 1089 839 1035Q851 992 856.5 941.5Q862 891 862 835Z"/></g>
    <g transform="translate(-193.62, 78.00) scale(0.010742, -0.010742)"><path d="M1091 0V1456H809L808 521L406 1456H123V0H406V939L811 0Z"/></g>
    <g transform="translate(-176.92, 78.00) scale(0.010742, -0.010742)"><path d="M1147 621V833Q1147 932 1128.5 1020.0Q1110 1108 1075 1182Q1043 1247 998.5 1301.0Q954 1355 895 1393Q836 1433 762.5 1454.5Q689 1476 605 1476Q522 1476 451.0 1455.0Q380 1434 323 1395Q265 1355 220.5 1299.0Q176 1243 145 1174Q113 1101 96.5 1015.0Q80 929 80 833V621Q80 531 94.5 450.0Q109 369 137 300Q168 225 214.0 165.5Q260 106 318 64Q377 24 449.0 2.0Q521 -20 606 -20Q686 -20 755.5 -0.5Q825 19 883 54Q947 94 997.0 154.0Q1047 214 1081 286Q1113 358 1130.0 442.5Q1147 527 1147 621ZM862 835V621Q862 567 856.5 517.0Q851 467 840 425Q826 371 802.5 328.5Q779 286 745 258Q718 235 683.0 223.0Q648 211 606 211Q562 211 527.5 224.0Q493 237 466 261Q437 288 415.5 331.5Q394 375 383 428Q373 470 369.0 519.0Q365 568 365 621V835Q365 891 369.5 942.0Q374 993 384 1036Q397 1092 420.5 1134.0Q444 1176 478 1204Q503 1223 534.5 1233.0Q566 1243 605 1243Q646 1243 679.5 1232.0Q713 1221 740 1201Q774 1174 799.0 1131.5Q824 1089 839 1035Q851 992 856.5 941.5Q862 891 862 835Z"/></g>
    <g transform="translate(-160.22, 78.00) scale(0.010742, -0.010742)"><path d="M887 380Q887 341 871.0 308.5Q855 276 825 253Q795 230 751.5 217.0Q708 204 652 204Q589 204 536.5 218.0Q484 232 447 262Q409 292 388.0 339.0Q367 386 365 452H89Q89 339 132.5 255.0Q176 171 251 109Q330 46 436.5 13.5Q543 -19 652 -19Q763 -19 857.0 7.5Q951 34 1019 86Q1087 137 1125.5 211.5Q1164 286 1164 382Q1164 493 1113.0 578.0Q1062 663 976 727Q919 766 851.0 796.0Q783 826 708 847Q638 866 582.5 888.0Q527 910 488 937Q449 963 428.5 996.0Q408 1029 408 1070Q408 1109 423.5 1142.5Q439 1176 469 1201Q499 1225 542.5 1238.5Q586 1252 642 1252Q703 1252 748.5 1235.5Q794 1219 825 1190Q855 1160 870.5 1119.0Q886 1078 888 1029H1162Q1162 1127 1124.0 1209.0Q1086 1291 1018 1351Q950 1410 855.5 1443.0Q761 1476 647 1476Q537 1476 443.0 1447.5Q349 1419 280 1366Q211 1313 172.0 1238.0Q133 1163 133 1071Q133 991 162.5 923.0Q192 855 250 799Q308 743 399.5 696.0Q491 649 612 616Q690 595 742.5 570.5Q795 546 828 517Q860 487 873.5 453.0Q887 419 887 380Z"/></g>
    <g transform="translate(-143.52, 78.00) scale(0.010742, -0.010742)"><path d="M1201 1227V1456H27V1227H470V0H752V1227Z"/></g>
    <g transform="translate(-126.81, 78.00) scale(0.010742, -0.010742)"><path d="M193 1456V1229H470V226H193V0H1035V226H751V1229H1035V1456Z"/></g>
    <g transform="translate(-110.11, 78.00) scale(0.010742, -0.010742)"><path d="M1142 456H861Q857 390 839.0 343.0Q821 296 790 266Q759 236 715.0 222.0Q671 208 616 208Q575 208 541.5 217.5Q508 227 481 247Q456 265 436.5 292.0Q417 319 403 354Q383 405 373.5 473.5Q364 542 364 629V827Q364 891 370.0 946.5Q376 1002 389 1048Q406 1107 434.5 1151.5Q463 1196 504 1220Q528 1234 556.5 1241.0Q585 1248 618 1248Q680 1248 724.5 1231.5Q769 1215 799 1183Q828 1150 843.5 1101.0Q859 1052 863 987H1143Q1133 1101 1095.0 1192.0Q1057 1283 991 1346Q925 1409 831.5 1443.0Q738 1477 618 1477Q537 1477 466.5 1456.5Q396 1436 337 1398Q271 1353 219.0 1288.0Q167 1223 135 1140Q107 1072 93.0 992.5Q79 913 79 825V629Q79 535 94.5 451.0Q110 367 139 297Q169 227 212.5 169.0Q256 111 312 70Q373 26 449.5 2.5Q526 -21 616 -21Q730 -21 824.0 12.5Q918 46 986 108Q1054 170 1094.5 258.0Q1135 346 1142 456Z"/></g>
    <g transform="translate(-93.41, 78.00) scale(0.010742, -0.010742)"><path d="M847 304 932 0H1228L760 1456H505L28 0H324L410 304ZM479 543 632 1079 781 543Z"/></g>
    <g transform="translate(-60.01, 78.00) scale(0.010742, -0.010742)"><path d="M494 701Q494 638 536.5 595.0Q579 552 652 552Q723 552 766.5 594.0Q810 636 810 701Q810 766 766.5 808.5Q723 851 652 851Q579 851 536.5 807.5Q494 764 494 701Z"/></g>
    <g transform="translate(-26.60, 78.00) scale(0.010742, -0.010742)"><path d="M1142 456H861Q857 390 839.0 343.0Q821 296 790 266Q759 236 715.0 222.0Q671 208 616 208Q575 208 541.5 217.5Q508 227 481 247Q456 265 436.5 292.0Q417 319 403 354Q383 405 373.5 473.5Q364 542 364 629V827Q364 891 370.0 946.5Q376 1002 389 1048Q406 1107 434.5 1151.5Q463 1196 504 1220Q528 1234 556.5 1241.0Q585 1248 618 1248Q680 1248 724.5 1231.5Q769 1215 799 1183Q828 1150 843.5 1101.0Q859 1052 863 987H1143Q1133 1101 1095.0 1192.0Q1057 1283 991 1346Q925 1409 831.5 1443.0Q738 1477 618 1477Q537 1477 466.5 1456.5Q396 1436 337 1398Q271 1353 219.0 1288.0Q167 1223 135 1140Q107 1072 93.0 992.5Q79 913 79 825V629Q79 535 94.5 451.0Q110 367 139 297Q169 227 212.5 169.0Q256 111 312 70Q373 26 449.5 2.5Q526 -21 616 -21Q730 -21 824.0 12.5Q918 46 986 108Q1054 170 1094.5 258.0Q1135 346 1142 456Z"/></g>
    <g transform="translate(-9.90, 78.00) scale(0.010742, -0.010742)"><path d="M1147 621V833Q1147 932 1128.5 1020.0Q1110 1108 1075 1182Q1043 1247 998.5 1301.0Q954 1355 895 1393Q836 1433 762.5 1454.5Q689 1476 605 1476Q522 1476 451.0 1455.0Q380 1434 323 1395Q265 1355 220.5 1299.0Q176 1243 145 1174Q113 1101 96.5 1015.0Q80 929 80 833V621Q80 531 94.5 450.0Q109 369 137 300Q168 225 214.0 165.5Q260 106 318 64Q377 24 449.0 2.0Q521 -20 606 -20Q686 -20 755.5 -0.5Q825 19 883 54Q947 94 997.0 154.0Q1047 214 1081 286Q1113 358 1130.0 442.5Q1147 527 1147 621ZM862 835V621Q862 567 856.5 517.0Q851 467 840 425Q826 371 802.5 328.5Q779 286 745 258Q718 235 683.0 223.0Q648 211 606 211Q562 211 527.5 224.0Q493 237 466 261Q437 288 415.5 331.5Q394 375 383 428Q373 470 369.0 519.0Q365 568 365 621V835Q365 891 369.5 942.0Q374 993 384 1036Q397 1092 420.5 1134.0Q444 1176 478 1204Q503 1223 534.5 1233.0Q566 1243 605 1243Q646 1243 679.5 1232.0Q713 1221 740 1201Q774 1174 799.0 1131.5Q824 1089 839 1035Q851 992 856.5 941.5Q862 891 862 835Z"/></g>
    <g transform="translate(6.80, 78.00) scale(0.010742, -0.010742)"><path d="M476 1456H127V0H385V431L373 1085L544 480H683L874 1112L862 431V0H1120V1456H771L614 909Z"/></g>
    <g transform="translate(23.51, 78.00) scale(0.010742, -0.010742)"><path d="M430 534H647Q766 534 862.0 568.0Q958 602 1026 663Q1093 723 1129.5 806.0Q1166 889 1166 987Q1166 1092 1129.5 1178.0Q1093 1264 1026 1326Q958 1387 862.0 1421.5Q766 1456 647 1456H149V0H430ZM430 762V1228H647Q707 1228 751.0 1209.0Q795 1190 825 1157Q854 1124 868.5 1080.0Q883 1036 883 985Q883 941 868.5 900.5Q854 860 825 829Q795 798 751.0 780.0Q707 762 647 762Z"/></g>
    <g transform="translate(40.21, 78.00) scale(0.010742, -0.010742)"><path d="M193 1456V1229H470V226H193V0H1035V226H751V1229H1035V1456Z"/></g>
    <g transform="translate(56.91, 78.00) scale(0.010742, -0.010742)"><path d="M1201 1227V1456H27V1227H470V0H752V1227Z"/></g>
    <g transform="translate(73.61, 78.00) scale(0.010742, -0.010742)"><path d="M1027 638V860H429V1227H1125V1456H147V0H1128V227H429V638Z"/></g>
    <g transform="translate(107.02, 78.00) scale(0.010742, -0.010742)"><path d="M494 701Q494 638 536.5 595.0Q579 552 652 552Q723 552 766.5 594.0Q810 636 810 701Q810 766 766.5 808.5Q723 851 652 851Q579 851 536.5 807.5Q494 764 494 701Z"/></g>
    <g transform="translate(140.42, 78.00) scale(0.010742, -0.010742)"><path d="M1132 170 1131 744H610V534H851L850 270Q839 257 817.5 245.5Q796 234 768 225Q740 216 708.0 211.0Q676 206 643 206Q589 207 546.5 223.5Q504 240 472 272Q453 291 437.5 315.5Q422 340 410 369Q391 419 380.5 484.0Q370 549 370 628V828Q370 891 377.5 945.0Q385 999 399 1043Q417 1100 444.5 1142.0Q472 1184 506 1210Q532 1229 562.0 1239.0Q592 1249 624 1249Q683 1249 725.5 1233.5Q768 1218 796 1187Q821 1159 835.5 1118.0Q850 1077 857 1024H1131Q1120 1129 1084.5 1213.0Q1049 1297 986 1356Q923 1414 831.5 1445.0Q740 1476 617 1476Q537 1476 465.0 1454.0Q393 1432 332 1389Q280 1351 236.5 1299.0Q193 1247 160 1182Q125 1109 106.0 1019.5Q87 930 87 826V628Q87 519 106.5 426.0Q126 333 164 259Q197 192 244.5 140.0Q292 88 350 52Q409 17 479.5 -1.5Q550 -20 630 -20Q722 -20 802.0 -3.0Q882 14 947 42Q1011 69 1058.0 103.0Q1105 137 1132 170Z"/></g>
    <g transform="translate(157.12, 78.00) scale(0.010742, -0.010742)"><path d="M847 304 932 0H1228L760 1456H505L28 0H324L410 304ZM479 543 632 1079 781 543Z"/></g>
    <g transform="translate(173.82, 78.00) scale(0.010742, -0.010742)"><path d="M1091 0V1456H809L808 521L406 1456H123V0H406V939L811 0Z"/></g>
    <g transform="translate(190.53, 78.00) scale(0.010742, -0.010742)"><path d="M847 304 932 0H1228L760 1456H505L28 0H324L410 304ZM479 543 632 1079 781 543Z"/></g>
    </g>
    <rect x="-308" y="106" width="596" height="7" fill="#FFD23F"/>
    <circle cx="258" cy="-114" r="38" fill="#EE4B2B" stroke="#FFD23F" stroke-width="5"/>
    <g fill="#FFD23F">
    <g transform="translate(248.43, -100.00) scale(0.020508, -0.020508)"><path d="M55 1353V1651H413V1353ZM55 -108 125 1173H343L413 -108Z"/></g>
    <g transform="translate(257.95, -100.00) scale(0.020508, -0.020508)"><path d="M125 479 55 1760H413L343 479ZM55 1V299H413V1Z"/></g>
    </g>
  </g>
</svg>