<?xml version="1.0" encoding="UTF-8"?>
<svg xmlns="http://www.w3.org/2000/svg" viewBox="0 0 600 140" width="600" height="140">
  <title>porrabros logo horizontal</title>
  <desc>Logo horizontal porrabros para header</desc>
  <g transform="translate(300, 70)">
    <rect x="-272" y="-58" width="544" height="120" rx="16" fill="#1A1A1A"/>
    <rect x="-280" y="-66" width="544" height="120" rx="16" fill="#FFD23F" stroke="#1A1A1A" stroke-width="4.5"/>
    <g fill="#1A1A1A">
    <g transform="translate(-162.49, 14.00) scale(0.034180, -0.034180)"><path d="M78 0V1760H543Q689 1760 774.5 1695.0Q860 1630 897.0 1510.0Q934 1390 934 1224Q934 1064 903.0 945.5Q872 827 792.5 762.0Q713 697 567 697H424V0ZM424 1013H444Q542 1013 564.0 1068.0Q586 1123 586 1230Q586 1330 564.5 1384.5Q543 1439 463 1439H424Z"/></g>
    <g transform="translate(-128.44, 14.00) scale(0.034180, -0.034180)"><path d="M498 -16Q287 -16 175.5 111.5Q64 239 64 480V1316Q64 1542 174.5 1659.0Q285 1776 498 1776Q711 1776 821.5 1659.0Q932 1542 932 1316V480Q932 239 820.5 111.5Q709 -16 498 -16ZM501 308Q581 308 581 463V1322Q581 1452 503 1452Q415 1452 415 1319V461Q415 379 435.0 343.5Q455 308 501 308Z"/></g>
    <g transform="translate(-93.40, 14.00) scale(0.034180, -0.034180)"><path d="M78 0V1760H618Q753 1760 822.0 1698.5Q891 1637 914.5 1526.5Q938 1416 938 1267Q938 1123 901.5 1037.0Q865 951 764 918Q847 901 880.5 835.5Q914 770 914 666V0H567V689Q567 766 535.5 784.5Q504 803 434 803V0ZM436 1108H521Q594 1108 594 1267Q594 1370 578.0 1402.0Q562 1434 518 1434H436Z"/></g>
    <g transform="translate(-59.04, 14.00) scale(0.034180, -0.034180)"><path d="M78 0V1760H618Q753 1760 822.0 1698.5Q891 1637 914.5 1526.5Q938 1416 938 1267Q938 1123 901.5 1037.0Q865 951 764 918Q847 901 880.5 835.5Q914 770 914 666V0H567V689Q567 766 535.5 784.5Q504 803 434 803V0ZM436 1108H521Q594 1108 594 1267Q594 1370 578.0 1402.0Q562 1434 518 1434H436Z"/></g>
    <g transform="translate(-24.68, 14.00) scale(0.034180, -0.034180)"><path d="M30 0 200 1760H797L964 0H631L606 284H394L372 0ZM419 565H579L502 1460H486Z"/></g>
    <g transform="translate(10.29, 14.00) scale(0.034180, -0.034180)"><path d="M78 0V1760H555Q747 1760 834.5 1666.5Q922 1573 922 1358V1281Q922 1157 877.5 1080.0Q833 1003 742 979Q861 949 901.5 838.5Q942 728 942 569Q942 398 910.0 270.0Q878 142 794.0 71.0Q710 0 555 0ZM422 1097H494Q543 1097 557.0 1135.0Q571 1173 571 1226V1403Q571 1488 496 1488H422ZM457 310Q594 310 594 440V660Q594 735 571.5 778.5Q549 822 487 822H422V312Q444 310 457 310Z"/></g>
    <g transform="translate(44.79, 14.00) scale(0.034180, -0.034180)"><path d="M78 0V1760H618Q753 1760 822.0 1698.5Q891 1637 914.5 1526.5Q938 1416 938 1267Q938 1123 901.5 1037.0Q865 951 764 918Q847 901 880.5 835.5Q914 770 914 666V0H567V689Q567 766 535.5 784.5Q504 803 434 803V0ZM436 1108H521Q594 1108 594 1267Q594 1370 578.0 1402.0Q562 1434 518 1434H436Z"/></g>
    <g transform="translate(79.15, 14.00) scale(0.034180, -0.034180)"><path d="M498 -16Q287 -16 175.5 111.5Q64 239 64 480V1316Q64 1542 174.5 1659.0Q285 1776 498 1776Q711 1776 821.5 1659.0Q932 1542 932 1316V480Q932 239 820.5 111.5Q709 -16 498 -16ZM501 308Q581 308 581 463V1322Q581 1452 503 1452Q415 1452 415 1319V461Q415 379 435.0 343.5Q455 308 501 308Z"/></g>
    <g transform="translate(114.19, 14.00) scale(0.034180, -0.034180)"><path d="M496 -16Q255 -16 148.5 104.0Q42 224 42 486V658H390V438Q390 377 408.5 342.5Q427 308 473 308Q521 308 539.5 336.0Q558 364 558 428Q558 509 542.0 563.5Q526 618 486.5 667.5Q447 717 377 783L219 933Q42 1100 42 1315Q42 1540 146.5 1658.0Q251 1776 449 1776Q691 1776 792.5 1647.0Q894 1518 894 1255H536V1376Q536 1412 515.5 1432.0Q495 1452 460 1452Q418 1452 398.5 1428.5Q379 1405 379 1368Q379 1331 399.0 1288.0Q419 1245 478 1189L681 994Q742 936 793.0 871.5Q844 807 875.0 721.5Q906 636 906 513Q906 265 814.5 124.5Q723 -16 496 -16Z"/></g>
    </g>
    <circle cx="218" cy="-44" r="20" fill="#EE4B2B" stroke="#1A1A1A" stroke-width="3.5"/>
    <g fill="#FFD23F">
    <g transform="translate(212.99, -37.00) scale(0.010742, -0.010742)"><path d="M55 1353V1651H413V1353ZM55 -108 125 1173H343L413 -108Z"/></g>
    <g transform="translate(217.97, -37.00) scale(0.010742, -0.010742)"><path d="M125 479 55 1760H413L343 479ZM55 1V299H413V1Z"/></g>
    </g>
  </g>
</svg>